<?xml version="1.0" encoding="utf-8"?>
<!-- Generator: Adobe Illustrator 23.0.1, SVG Export Plug-In . SVG Version: 6.00 Build 0)  -->
<svg version="1.1" id="Layer_1" xmlns="http://www.w3.org/2000/svg" xmlns:xlink="http://www.w3.org/1999/xlink" x="0px" y="0px"
	 viewBox="0 0 45 45" style="enable-background:new 0 0 45 45;" xml:space="preserve">
<path d="M14.2,7.5c-5.7,0-10.4,4.7-10.4,10.4v16.7C3.8,40.3,8.4,45,14.2,45h16.7c5.7,0,10.4-4.7,10.4-10.4V17.9
	c0-5.7-4.7-10.4-10.4-10.4H14.2z M14.2,11.7h16.7c3.4,0,6.2,2.8,6.2,6.2v16.7c0,3.4-2.8,6.2-6.2,6.2H14.2c-3.4,0-6.2-2.8-6.2-6.2
	V17.9C7.9,14.5,10.7,11.7,14.2,11.7z M32.9,13.8c-1.2,0-2.1,0.9-2.1,2.1s0.9,2.1,2.1,2.1c1.2,0,2.1-0.9,2.1-2.1S34.1,13.8,32.9,13.8
	z M22.5,15.8c-5.7,0-10.4,4.7-10.4,10.4s4.7,10.4,10.4,10.4S32.9,32,32.9,26.3S28.3,15.8,22.5,15.8z M22.5,20c3.4,0,6.2,2.8,6.2,6.2
	s-2.8,6.2-6.2,6.2s-6.2-2.8-6.2-6.2S19.1,20,22.5,20z"/>
</svg>
